<svg xmlns="http://www.w3.org/2000/svg" xmlns:xlink="http://www.w3.org/1999/xlink" fill="none" version="1.1" width="61.75" height="63.75" viewBox="0 0 61.75 63.75"><defs><linearGradient x1="39.55413818359375" y1="5.399932861328125" x2="39.55413818359375" y2="5.399932861328125" gradientUnits="userSpaceOnUse" id="master_svg0_3_899"><stop offset="0%" stop-color="#027FF3" stop-opacity="1"/><stop offset="100%" stop-color="#00E4FE" stop-opacity="1"/></linearGradient><linearGradient x1="0" y1="0.5" x2="1" y2="0.5" id="master_svg1_3_828"><stop offset="0%" stop-color="#0279F2" stop-opacity="1"/><stop offset="100.00002384185791%" stop-color="#00E5FE" stop-opacity="1"/></linearGradient><linearGradient x1="0.5" y1="0" x2="0.5" y2="1" id="master_svg2_3_901"><stop offset="0%" stop-color="#0276F2" stop-opacity="1"/><stop offset="100%" stop-color="#00E1FD" stop-opacity="1"/></linearGradient><linearGradient x1="0.5" y1="0" x2="0.5" y2="1" id="master_svg3_3_899"><stop offset="0%" stop-color="#027FF3" stop-opacity="1"/><stop offset="100%" stop-color="#00E4FE" stop-opacity="1"/></linearGradient><linearGradient x1="48.18975830078125" y1="37.0267333984375" x2="48.18975830078125" y2="38.0267333984375" gradientUnits="userSpaceOnUse" id="master_svg4_3_899"><stop offset="0%" stop-color="#027FF3" stop-opacity="1"/><stop offset="100%" stop-color="#00E4FE" stop-opacity="1"/></linearGradient><linearGradient x1="33.384483337402344" y1="36.74998474121094" x2="33.384483337402344" y2="36.74998474121094" gradientUnits="userSpaceOnUse" id="master_svg5_3_899"><stop offset="0%" stop-color="#027FF3" stop-opacity="1"/><stop offset="100%" stop-color="#00E4FE" stop-opacity="1"/></linearGradient><linearGradient x1="0.5" y1="0" x2="0.5" y2="1" id="master_svg6_3_899"><stop offset="0%" stop-color="#027FF3" stop-opacity="1"/><stop offset="100%" stop-color="#00E4FE" stop-opacity="1"/></linearGradient><clipPath id="master_svg7_3_4046"><rect x="26.75" y="28.75" width="10" height="10" rx="0"/></clipPath><linearGradient x1="0.5" y1="0" x2="0.5" y2="1" id="master_svg8_3_892"><stop offset="0%" stop-color="#268BF3" stop-opacity="1"/><stop offset="100%" stop-color="#01C3FA" stop-opacity="1"/></linearGradient><linearGradient x1="0.5" y1="0" x2="0.5" y2="1" id="master_svg9_3_899"><stop offset="0%" stop-color="#027FF3" stop-opacity="1"/><stop offset="100%" stop-color="#00E4FE" stop-opacity="1"/></linearGradient><linearGradient x1="0.5" y1="0" x2="0.5" y2="1" id="master_svga_3_899"><stop offset="0%" stop-color="#027FF3" stop-opacity="1"/><stop offset="100%" stop-color="#00E4FE" stop-opacity="1"/></linearGradient><linearGradient x1="0.5" y1="0" x2="0.5" y2="1" id="master_svgb_3_901"><stop offset="0%" stop-color="#0276F2" stop-opacity="1"/><stop offset="100%" stop-color="#00E1FD" stop-opacity="1"/></linearGradient><linearGradient x1="0.5" y1="0" x2="0.5" y2="1" id="master_svgc_3_901"><stop offset="0%" stop-color="#0276F2" stop-opacity="1"/><stop offset="100%" stop-color="#00E1FD" stop-opacity="1"/></linearGradient><linearGradient x1="0.5" y1="0" x2="0.5" y2="1" id="master_svgd_3_899"><stop offset="0%" stop-color="#027FF3" stop-opacity="1"/><stop offset="100%" stop-color="#00E4FE" stop-opacity="1"/></linearGradient></defs><g><g><g transform="matrix(0.005061655770987272,0.9999893307685852,-0.9999893307685852,0.005061655770987272,34.80442055769501,-24.181222603656565)"><line x1="29.55413818359375" y1="4.399932861328125" x2="49.55413818359375" y2="4.399932861328125" stroke="url(#master_svg0_3_899)" fill-opacity="0" fill="none" stroke-width="2"/></g><g><path d="M27.75,2.9003616327109376L27.75,3.902635366210937Q23.8102,4.307485366210938,20.0753,5.786125366210937Q14.4909,7.996935366210938,10.2439,12.243885366210938Q5.99695,16.490875366210936,3.78614,22.07527536621094Q1.75,27.21847536621094,1.75,32.74997536621093Q1.75,36.857075366210935,2.87246,40.74997536621094L1.83634,40.74997536621094Q1.295649,38.795875366210936,1.022824,36.786675366210936Q0.75,34.77757536621094,0.75,32.74997536621093Q0.75,32.06047536621094,0.7816753,31.371775366210937Q0.8133506,30.682975366210936,0.876634,29.996475366210937Q0.939918,29.30987536621094,1.034677,28.62697536621094Q1.129435,27.94397536621094,1.255469,27.266175366210938Q1.381502,26.588275366210937,1.538544,25.916875366210938Q1.695585,25.245575366210936,1.8833,24.582175366210937Q2.07102,23.918675366210937,2.28902,23.264575366210938Q2.50702,22.610475366210938,2.75484,21.96707536621094Q3.00266,21.32367536621094,3.27978,20.69237536621094Q3.55689,20.060975366210936,3.86272,19.443075366210937Q4.16855,18.82507536621094,4.50244,18.221875366210938Q4.83634,17.618675366210937,5.19759,17.031375366210938Q5.55885,16.44407536621094,5.9467,15.874075366210937Q6.33455,15.304075366210938,6.74818,14.752375366210938Q7.16181,14.200775366210937,7.60035,13.668775366210937Q8.03889,13.136675366210937,8.5014,12.625375366210937Q8.96392,12.114045366210938,9.44944,11.624495366210937Q9.93496,11.134955366210937,10.44246,10.668235366210936Q10.95,10.201515366210938,11.4784,9.758605366210936Q12.0068,9.315685366210937,12.5549,8.897515366210937Q13.1031,8.479345366210937,13.67,8.086805366210937Q14.2368,7.694265366210938,14.8211,7.328175366210938Q15.4053,6.962085366210937,16.0058,6.623225366210938Q16.6062,6.284365366210937,17.2216,5.973445366210937Q17.837,5.662525366210938,18.4661,5.380205366210937Q19.0951,5.097895366210937,19.7364,4.844775366210937Q20.3778,4.591645366210938,21.03,4.368255366210938Q21.6823,4.144865366210937,22.3442,3.9516853662109375Q23.006,3.7584933662109377,23.6761,3.5959163662109375Q24.3461,3.4333393662109373,25.0229,3.3017163662109374Q25.6997,3.1700923662109375,26.3818,3.0697013662109374Q27.064,2.9693094662109374,27.75,2.9003616327109376ZM41.4247,5.786125366210937Q40.5925,5.456625366210938,39.75,5.180455366210937L39.75,4.131805366210937Q40.3162,4.309875366210937,40.875,4.510205366210938Q41.4337,4.710535366210937,41.9841,4.932805366210937Q42.5345,5.155075366210937,43.0756,5.3989453662109375Q43.6168,5.642805366210938,44.1478,5.907895366210937Q44.6789,6.172975366210938,45.1991,6.458855366210937Q45.7193,6.7447353662109375,46.2278,7.050975366210937Q46.7362,7.357205366210938,47.2322,7.6833153662109375Q47.7281,8.009425366210937,48.2108,8.354885366210937Q48.6935,8.700355366210937,49.1621,9.064655366210937Q49.6307,9.428945366210938,50.0846,9.811485366210938Q50.5384,10.194025366210937,50.9768,10.594225366210939Q51.4151,10.994425366210937,51.8373,11.411645366210937Q52.2595,11.828865366210938,52.6649,12.262465366210938Q53.0702,12.696055366210938,53.4581,13.145375366210937Q53.846,13.594675366210938,54.2158,14.058875366210938Q54.5856,14.523175366210937,54.9368,15.001775366210937Q55.2879,15.480275366210938,55.6199,15.972375366210937Q55.9518,16.464375366210938,56.2641,16.969175366210937Q56.5763,17.47407536621094,56.8683,17.99077536621094Q57.1603,18.507575366210936,57.4317,19.03547536621094Q57.703,19.563375366210938,57.9533,20.101575366210938Q58.2035,20.639875366210937,58.4323,21.187575366210936Q58.6611,21.73527536621094,58.868,22.29157536621094Q59.0749,22.84787536621094,59.2597,23.41197536621094Q59.4444,23.97607536621094,59.6067,24.546975366210937Q59.769,25.11797536621094,59.9086,25.694875366210937Q60.0482,26.27177536621094,60.1649,26.853775366210936Q60.2815,27.435775366210937,60.3751,28.02187536621094Q60.4686,28.608075366210937,60.5389,29.197475366210938Q60.6092,29.786775366210936,60.6561,30.37847536621094Q60.703,30.970275366210938,60.7265,31.563375366210938Q60.75,32.15637536621094,60.75,32.74997536621093Q60.75,34.77757536621094,60.4772,36.786675366210936Q60.2044,38.795875366210936,59.6637,40.74997536621094L58.6275,40.74997536621094Q59.75,36.857075366210935,59.75,32.74997536621093Q59.75,27.21837536621094,57.7139,22.07527536621094Q55.5031,16.490875366210936,51.2561,12.243885366210938Q47.0091,7.996935366210938,41.4247,5.786125366210937ZM54.9444,48.74997536621094Q53.3471,51.16517536621094,51.2561,53.256075366210936Q47.0092,57.503075366210936,41.4247,59.713875366210935Q36.2816,61.74997536621094,30.75,61.74997536621094Q25.2184,61.74997536621094,20.0753,59.713875366210935Q14.4908,57.503075366210936,10.2439,53.256075366210936Q8.59202,51.60417536621094,7.24819,49.74997536621094L6.03159,49.74997536621094Q6.54617,50.49817536621094,7.10508,51.21397536621094Q7.66398,51.92967536621094,8.26515,52.610275366210935Q8.86632,53.29087536621094,9.50755,53.933875366210934Q10.14879,54.576875366210935,10.8277,55.17997536621094Q11.5067,55.782975366210934,12.2209,56.34387536621094Q12.9351,56.904775366210934,13.6819,57.42137536621094Q14.4287,57.93807536621094,15.2054,58.40857536621094Q15.982,58.87907536621094,16.7858,59.30177536621094Q17.5895,59.72447536621094,18.4173,60.097875366210936Q19.2451,60.471175366210936,20.094,60.79367536621094Q20.9429,61.116275366210935,21.8097,61.38687536621094Q22.6765,61.65747536621094,23.5582,61.87517536621094Q24.4398,62.09287536621094,25.333,62.256875366210934Q26.2261,62.420875366210936,27.1276,62.530475366210936Q28.029,62.64017536621094,28.9355,62.695075366210936Q29.8419,62.74997536621094,30.75,62.74997536621094Q31.2227,62.74997536621094,31.6951,62.735075366210935Q32.167500000000004,62.72017536621094,32.6392,62.69047536621094Q33.111,62.66067536621094,33.5815,62.616075366210936Q34.0521,62.57147536621094,34.521,62.51207536621094Q34.9899,62.45267536621094,35.4567,62.378475366210935Q35.9235,62.30427536621094,36.3877,62.21547536621094Q36.852,62.12667536621094,37.3132,62.02327536621094Q37.7744,61.91987536621094,38.2321,61.80197536621094Q38.6899,61.68407536621094,39.1436,61.551875366210936Q39.5974,61.419575366210935,40.0468,61.27307536621094Q40.4962,61.12667536621094,40.9408,60.96607536621094Q41.3853,60.80557536621094,41.8246,60.631075366210936Q42.2639,60.456575366210934,42.6974,60.268275366210936Q43.131,60.080075366210934,43.5584,59.878275366210936Q43.9858,59.67647536621094,44.4067,59.461275366210934Q44.8275,59.246175366210934,45.2414,59.01787536621094Q45.6552,58.78947536621094,46.0617,58.54827536621094Q46.4682,58.30707536621094,46.8668,58.05307536621094Q47.2655,57.79917536621094,47.6559,57.53287536621094Q48.0464,57.26647536621094,48.4283,56.98797536621094Q48.8102,56.709375366210935,49.1831,56.41897536621094Q49.556,56.12857536621094,49.9196,55.82657536621094Q50.2831,55.524475366210936,50.637,55.21117536621094Q50.9909,54.89787536621094,51.3348,54.57357536621094Q51.6786,54.24927536621094,52.012,53.91427536621094Q52.3455,53.579275366210936,52.6682,53.23387536621094Q52.991,52.88857536621094,53.3027,52.53327536621094Q53.6143,52.17797536621094,53.9147,51.812975366210935Q54.215,51.44797536621094,54.5037,51.07377536621094Q54.7924,50.69947536621094,55.0692,50.316375366210934Q55.346,49.93317536621094,55.6105,49.54147536621094Q55.8751,49.14977536621094,56.1272,48.74997536621094L54.9444,48.74997536621094Z" fill-rule="evenodd" fill="url(#master_svg1_3_828)" fill-opacity="1"/><path d="M28.5,2.9003616327109376L28.5,4.579505366210937L27.8267,4.648705366210938Q23.99,5.042965366210938,20.3513,6.483465366210938Q14.9114,8.637095366210938,10.7742,12.774215366210937Q6.63712,16.911375366210937,4.48348,22.35127536621094Q2.5,27.361475366210936,2.5,32.74997536621093Q2.5,36.75107536621094,3.5931,40.54217536621094L3.86926,41.49997536621094L1.265671,41.49997536621094L1.113494,40.949975366210936Q0,36.925575366210936,0,32.74997536621093Q0,27.236975366210938,1.91526,22.067275366210936Q3.97259,16.514175366210935,7.94519,12.122255366210938Q11.9178,7.730395366210938,17.2374,5.128055366210937Q22.1896,2.7054253662109375,27.675,2.1541213662109375L28.5,2.0712053662109375L28.5,2.9003616327109376ZM27,2.9003616327109376L27.75,2.9003616327109376L27.825,3.6466023662109377Q22.6072,4.171015366210938,17.8965,6.475465366210937Q12.8364,8.950855366210938,9.05762,13.128475366210937Q5.27881,17.306075366210937,3.32183,22.588375366210936Q1.5,27.505875366210937,1.5,32.74997536621093Q1.5,36.72187536621094,2.55918,40.54997536621094L1.83634,40.74997536621094L1.83634,39.99997536621094L2.87246,39.99997536621094L2.87246,40.74997536621094L2.15182,40.95777536621094Q1.000001,36.96297536621094,1,32.74997536621093Q1,27.075375366210938,3.0888,21.79917536621094Q5.35679,16.07037536621094,9.71357,11.713555366210937Q14.0704,7.356765366210937,19.7992,5.088785366210938Q23.6305,3.5720063662109376,27.6733,3.1565593662109377L27.75,3.902635366210937L27,3.902635366210937L27,2.9003616327109376ZM41.1487,6.483465366210938Q40.3374,6.162285366210938,39.5164,5.893135366210938L39,5.7238553662109375L39,3.1097313662109376L39.975,3.4163543662109372Q44.5344,4.850205366210938,48.4434,7.600325366210938Q52.5622,10.497965366210938,55.5414,14.558075366210938Q58.5208,18.618175366210938,60.0493,23.41647536621094Q61.5,27.970475366210938,61.5,32.74997536621093Q61.5,36.925575366210936,60.3865,40.949975366210936L60.2343,41.49997536621094L57.6307,41.49997536621094L57.9069,40.54217536621094Q59,36.75107536621094,59,32.74997536621093Q59,27.361475366210936,57.0165,22.35127536621094Q54.8629,16.911375366210937,50.7258,12.774215366210937Q46.5887,8.637095366210938,41.1487,6.483465366210938L41.1487,6.483465366210938ZM41.7008,5.088785366210938Q47.4297,7.356765366210937,51.7864,11.713555366210937Q56.1432,16.07037536621094,58.4112,21.79917536621094Q60.5,27.075375366210938,60.5,32.74997536621093Q60.5,36.96297536621094,59.3482,40.95777536621094L58.6275,40.74997536621094L58.6275,39.99997536621094L59.6637,39.99997536621094L59.6637,40.74997536621094L58.9408,40.54997536621094Q60,36.72187536621094,60,32.74997536621093Q60,28.203675366210938,58.62,23.871675366210937Q57.1661,19.307475366210937,54.3321,15.445475366210937Q51.4982,11.583425366210937,47.5803,8.827145366210939Q43.862,6.211175366210938,39.525,4.847265366210937L39.75,4.131805366210937L40.5,4.131805366210937L40.5,5.180455366210937L39.75,5.180455366210937L39.9836,4.467775366210938Q40.8475,4.7509753662109375,41.7008,5.088785366210938L41.7008,5.088785366210938ZM55.57,49.163775366210935Q53.9309,51.641975366210936,51.7864,53.78637536621094Q47.4296,58.143275366210936,41.7008,60.41117536621094Q36.4247,62.49997536621094,30.75,62.49997536621094Q25.0754,62.49997536621094,19.7992,60.41117536621094Q14.0704,58.14317536621094,9.71357,53.78637536621094Q8.019639999999999,52.09247536621094,6.6409,50.19007536621094L7.24819,49.74997536621094L7.24819,50.49997536621094L6.03159,50.49997536621094L6.03159,49.74997536621094L6.64955,49.324975366210936Q10.74237,55.27607536621094,17.1349,58.63797536621094Q23.5274,61.99997536621094,30.75,61.99997536621094Q38.2831,61.99997536621094,44.8791,58.36117536621094Q51.475,54.72227536621094,55.4927,48.349975366210934L56.1272,48.74997536621094L56.1272,49.49997536621094L54.9444,49.49997536621094L54.9444,48.74997536621094L55.57,49.163775366210935ZM54.5413,47.99997536621094L57.4866,47.99997536621094L56.7616,49.14997536621094Q52.5379,55.84907536621094,45.6037,59.67457536621094Q38.6695,63.49997536621094,30.75,63.49997536621094Q23.157,63.49997536621094,16.436700000000002,59.965575366210935Q9.71634,56.43127536621094,5.41363,50.17497536621094L4.60552,48.99997536621094L7.63089,48.99997536621094L7.85547,49.30987536621094Q9.1644,51.115875366210936,10.7742,52.72577536621094Q14.9114,56.862875366210936,20.3513,59.01647536621094Q25.3615,60.99997536621094,30.75,60.99997536621094Q36.1385,60.99997536621094,41.1487,59.01647536621094Q46.5886,56.862875366210936,50.7258,52.72577536621094Q52.7633,50.68827536621094,54.3189,48.336275366210934L54.5413,47.99997536621094Z" fill="url(#master_svg2_3_901)" fill-opacity="1"/></g><g><ellipse cx="30.25" cy="3.25" rx="2.5" ry="2.5" fill="#FFFFFF" fill-opacity="1"/><ellipse cx="30.25" cy="3.25" rx="2.5" ry="2.5" stroke="url(#master_svg3_3_899)" fill-opacity="0" fill="none" stroke-width="1.5"/></g><g transform="matrix(0.9414119124412537,0.3372596502304077,-0.3372596502304077,0.9414119124412537,14.842264233422611,-11.385058329004096)"><line x1="40.18975830078125" y1="36.0267333984375" x2="56.18975830078125" y2="36.0267333984375" stroke="url(#master_svg4_3_899)" fill-opacity="0" fill="none" stroke-width="2"/></g><g transform="matrix(-0.9453617930412292,0.3260231912136078,0.3260231912136078,0.9453617930412292,34.22099528234821,-5.735097519301235)"><line x1="23.75" y1="35.74998474121094" x2="43.01896667480469" y2="35.74998474121094" stroke="url(#master_svg5_3_899)" fill-opacity="0" fill="none" stroke-width="2"/></g><g><ellipse cx="31.75" cy="33.75" rx="9" ry="9" stroke="url(#master_svg6_3_899)" fill-opacity="0" fill="none" stroke-width="2"/></g><g clip-path="url(#master_svg7_3_4046)"><g><path d="M32.57812,37.26563C32.57812,37.73828,32.20361,38.125,31.7459,38.125C31.28818,38.125,30.91367,37.73828,30.91367,37.26563C30.91367,36.79297,31.28818,36.40625,31.7459,36.40625C32.20361,36.40625,32.57812,36.79297,32.57812,37.26563ZM31.7459,33.98027C30.99687,33.98027,30.28955,34.30264,29.74863,34.85527C29.58222,35.03945,29.58222,35.31582,29.72783,35.5C29.89423,35.68418,30.14394,35.68418,30.31035,35.52305C30.70566,35.13164,31.20498,34.90137,31.7459,34.90137C32.28681,34.90137,32.78613,35.13164,33.18144,35.52305C33.26464,35.61514,33.36865,35.66123,33.47265,35.66123C33.576660000000004,35.66123,33.70146,35.61514,33.78476,35.52305C33.95117,35.33887,33.930369999999996,35.03955,33.76396,34.87832C33.20224,34.30264,32.49492,33.98027,31.7459,33.98027ZM31.7459,31.67764C30.45595,31.67764,29.24931,32.20723,28.31308,33.19736C28.14668,33.38154,28.14668,33.65791,28.29228,33.84209C28.45879,34.02627,28.70839,34.02627,28.8749,33.86514C29.66543,33.03613,30.68496,32.59873,31.74599,32.59873C32.80703,32.59873,33.82646,33.03623,34.61709,33.86514C34.67949,33.93428,34.78349,33.98027,34.8876,33.98027C34.9916,33.98027,35.1165,33.93428,35.19961,33.84209C35.36611,33.65791,35.34531,33.35859,35.1788,33.19736C34.24257,32.20723,33.03584,31.67764,31.7459,31.67764ZM36.61425,31.51641C35.28281,30.134863,33.55595,29.375,31.7459,29.375C29.93584,29.375,28.20908,30.134863,26.877535,31.51641C26.7111286,31.70068,26.7111286,31.97695,26.856734,32.16113C27.02314,32.34531,27.293648,32.36836,27.460054,32.18418C28.62519,30.96387,30.14394,30.295996,31.7459,30.295996C33.34785,30.295996,34.8666,30.96377,36.03174,32.18418C36.114940000000004,32.27627,36.21894,32.29932,36.32295,32.29932C36.42695,32.29932,36.55175,32.25322,36.635059999999996,32.16113C36.8016,31.97695,36.7808,31.67764,36.61425,31.51641Z" fill="url(#master_svg8_3_892)" fill-opacity="1"/></g><g transform="matrix(-0.9743911027908325,0.224859818816185,-0.224859818816185,-0.9743911027908325,67.50080055370927,87.81245536729693)"><line x1="28.75" y1="47.25" x2="42.09166431427002" y2="47.25" fill-opacity="0" stroke-opacity="1" stroke="#D8D8D8" fill="none" stroke-width="1"/></g></g><g><ellipse cx="3.25" cy="42.25" rx="2.5" ry="2.5" fill="#FFFFFF" fill-opacity="1"/><ellipse cx="3.25" cy="42.25" rx="2.5" ry="2.5" stroke="url(#master_svg9_3_899)" fill-opacity="0" fill="none" stroke-width="1.5"/></g><g><ellipse cx="58.25" cy="42.25" rx="2.5" ry="2.5" fill="#FFFFFF" fill-opacity="1"/><ellipse cx="58.25" cy="42.25" rx="2.5" ry="2.5" stroke="url(#master_svga_3_899)" fill-opacity="0" fill="none" stroke-width="1.5"/></g><g><ellipse cx="6.150000095367432" cy="49.25" rx="1.5" ry="1.5" fill="url(#master_svgb_3_901)" fill-opacity="1"/></g><g><ellipse cx="55.95000076293945" cy="48.25" rx="1.5" ry="1.5" fill="url(#master_svgc_3_901)" fill-opacity="1"/></g><g transform="matrix(0.9563049077987671,0.2923717498779297,-0.2923717498779297,0.9563049077987671,2.336563349780363,-10.934350090177176)"><ellipse cx="39.25" cy="3.850000023841858" rx="1.5" ry="1.5" fill="url(#master_svgd_3_899)" fill-opacity="1"/></g></g></g></svg>