<svg xmlns="http://www.w3.org/2000/svg" xmlns:xlink="http://www.w3.org/1999/xlink" fill="none" version="1.1" width="131.8494873046875" height="76.779052734375" viewBox="0 0 131.8494873046875 76.779052734375"><defs><filter id="master_svg0_40_1398" filterUnits="objectBoundingBox" color-interpolation-filters="sRGB" x="-20" y="-16" width="86.28781127929688" height="86.28781127929688"><feFlood flood-opacity="0" result="BackgroundImageFix"/><feColorMatrix in="SourceAlpha" type="matrix" values="0 0 0 0 0 0 0 0 0 0 0 0 0 0 0 0 0 0 127 0"/><feOffset dy="4" dx="0"/><feGaussianBlur stdDeviation="5"/><feColorMatrix type="matrix" values="0 0 0 0 0.27843138575553894 0 0 0 0 0.43921568989753723 0 0 0 0 0.8823529481887817 0 0 0 1 0"/><feBlend mode="normal" in2="BackgroundImageFix" result="effect1_dropShadow"/><feBlend mode="normal" in="SourceGraphic" in2="effect1_dropShadow" result="shape"/></filter><radialGradient cx="0" cy="0" r="1" gradientUnits="userSpaceOnUse" id="master_svg1_40_1459" gradientTransform="translate(45.61201477050781 59.52058792114258) rotate(90) scale(23.143905639648438 23.143905639648438)"><stop offset="0%" stop-color="#90A6E4" stop-opacity="1"/><stop offset="97.85714149475098%" stop-color="#2A5BE1" stop-opacity="1"/></radialGradient><filter id="master_svg2_40_1383" filterUnits="objectBoundingBox" color-interpolation-filters="sRGB" x="-20" y="-16" width="75.28209686279297" height="75.28209686279297"><feFlood flood-opacity="0" result="BackgroundImageFix"/><feColorMatrix in="SourceAlpha" type="matrix" values="0 0 0 0 0 0 0 0 0 0 0 0 0 0 0 0 0 0 127 0"/><feOffset dy="4" dx="0"/><feGaussianBlur stdDeviation="5"/><feColorMatrix type="matrix" values="0 0 0 0 0.27843138575553894 0 0 0 0 0.43921568989753723 0 0 0 0 0.8823529481887817 0 0 0 1 0"/><feBlend mode="normal" in2="BackgroundImageFix" result="effect1_dropShadow"/><feBlend mode="normal" in="SourceGraphic" in2="effect1_dropShadow" result="shape"/></filter><radialGradient cx="0" cy="0" r="1" gradientUnits="userSpaceOnUse" id="master_svg3_40_1459" gradientTransform="translate(49.68515872955322 54.299564361572266) rotate(90) scale(17.641048431396484 17.641048431396484)"><stop offset="0%" stop-color="#90A6E4" stop-opacity="1"/><stop offset="97.85714149475098%" stop-color="#2A5BE1" stop-opacity="1"/></radialGradient><linearGradient x1="1.1878498792648315" y1="0.5245469212532043" x2="-0.10221040993928909" y2="0.9512871503829956" id="master_svg4_40_0977"><stop offset="0%" stop-color="#4972E2" stop-opacity="1"/><stop offset="100%" stop-color="#7391E3" stop-opacity="1"/></linearGradient><linearGradient x1="1.2016619443893433" y1="-0.2826491594314575" x2="-0.39226672053337097" y2="1.406659722328186" id="master_svg5_40_1181"><stop offset="0%" stop-color="#90A6E4" stop-opacity="1"/><stop offset="97.85714149475098%" stop-color="#2A5BE1" stop-opacity="1"/></linearGradient><linearGradient x1="0.7955831289291382" y1="0.7955830693244934" x2="0.7221515774726868" y2="-0.38789623975753784" id="master_svg6_40_1177"><stop offset="0%" stop-color="#7290E3" stop-opacity="1"/><stop offset="97.26027250289917%" stop-color="#4770E1" stop-opacity="1"/></linearGradient></defs><g><g transform="matrix(0.8641583919525146,-0.5032199025154114,0.8641583919525146,0.5032199621200562,-28.383111190821182,29.37760928828402)" style="opacity:0.23000000417232513;" filter="url(#master_svg0_40_1398)"><rect x="22.468109130859375" y="36.37668228149414" width="46.287811279296875" height="46.287811279296875" rx="0" fill="url(#master_svg1_40_1459)" fill-opacity="1"/></g><g transform="matrix(0.8641583919525146,-0.5032199025154114,0.8641583919525146,0.5032199621200562,-27.32584070623375,34.33645299284677)" style="opacity:0.5899999737739563;" filter="url(#master_svg2_40_1383)"><rect x="32.04411029815674" y="36.65851593017578" width="35.28209686279297" height="35.28209686279297" rx="0" fill="url(#master_svg3_40_1459)" fill-opacity="1"/></g><g transform="matrix(0.999847948551178,-0.017452416941523552,0.017452416941523552,0.999847948551178,-0.45613458250329586,0.8738856662256822)"><g transform="matrix(0.8706961274147034,-0.49182140827178955,-0.00941823422908783,1,8.528588755310565,30.943689183158767)"><rect x="62.9165153503418" y="41.75301456451416" width="15.128955841064453" height="4.83301305770874" rx="0" fill="url(#master_svg4_40_0977)" fill-opacity="1"/></g><g transform="matrix(0.8612778782844543,0.5081342458724976,-0.00941823422908783,1,7.240048682146266,-25.349630317485506)"><rect x="49.88766359165311" y="33.926331996917725" width="15.12886905670166" height="4.956762313842773" rx="0" fill="url(#master_svg5_40_1181)" fill-opacity="1"/></g><g transform="matrix(0.8706961870193481,-0.4918213188648224,0.8612779378890991,0.5081342458724976,-22.795887740187737,41.23802023435676)"><rect x="49.88737994432449" y="33.957117557525635" width="15.019659996032715" height="15.238112449645996" rx="0" fill="url(#master_svg6_40_1177)" fill-opacity="1"/></g></g><g transform="matrix(1,4.395658947942138e-9,-4.395658947942138e-9,1,1.3223786510252467e-7,-2.5261020653033484e-7)"><path d="M59.132169130859374,35.829830234375Q59.132169130859374,36.091550234375,59.14974913085938,36.212650234375Q59.16732913085937,36.333740234375,59.20833913085937,36.404050234375Q59.249359130859375,36.474360234375,59.32943913085938,36.521240234375Q59.40951913085937,36.568120234375,59.58919913085938,36.614990234375L59.58919913085938,36.806400234375L57.940765130859376,36.806400234375L57.940765130859376,36.614990234375Q58.182953130859374,36.552490234375,58.264984130859375,36.476320234375Q58.347015130859376,36.400150234375,58.372406130859375,36.259520234375Q58.397797130859374,36.118900234375,58.397797130859374,35.829830234375L58.397797130859374,32.450930234375Q58.397797130859374,32.181400234375,58.378265130859376,32.058350234375Q58.358734130859375,31.935300234375,58.313812130859375,31.866940234375Q58.268890130859376,31.798580234375,58.194671130859376,31.757570234375Q58.120453130859374,31.716550234375,57.940765130859376,31.665770234375L57.940765130859376,31.474360234375L59.58919913085938,31.474360234375L59.58919913085938,31.665770234375Q59.41732913085937,31.708740234375,59.341159130859374,31.751710234375Q59.26498913085938,31.794680234375,59.220059130859376,31.859130234375Q59.17513913085938,31.923580234375,59.153659130859374,32.052490234375Q59.132169130859374,32.181400234375,59.132169130859374,32.450930234375L59.132169130859374,35.829830234375ZM62.616549130859376,36.868900234375Q62.147799130859376,36.868900234375,61.76302913085937,36.714600234375Q61.37826913085937,36.560300234375,61.10287913085938,36.234130234375Q60.82748913085938,35.907960234375,60.67708913085937,35.400150234375Q60.52669913085938,34.892330234375,60.52669913085938,34.185300234375Q60.52669913085938,33.314210234375,60.79232913085937,32.689210234375Q61.05794913085938,32.064210234375,61.55208913085937,31.738040234375Q62.04622913085937,31.411860234375,62.69857913085937,31.411860234375Q63.39388913085938,31.411860234375,63.86849913085938,31.718510234375Q64.34310913085938,32.025150234375,64.58333913085937,32.620850234375Q64.82357913085937,33.216550234375,64.82357913085937,34.072020234375Q64.82357913085937,34.986080234375,64.55013913085938,35.614990234375Q64.27669913085937,36.243900234375,63.778659130859374,36.556400234375Q63.280609130859375,36.868900234375,62.616549130859376,36.868900234375ZM61.33138913085938,34.075930234375Q61.33138913085938,35.275150234375,61.68099913085938,35.900150234375Q62.030609130859375,36.525150234375,62.70248913085938,36.525150234375Q63.12826913085937,36.525150234375,63.42513913085938,36.253660234375Q63.72201913085937,35.982180234375,63.87044913085938,35.458740234375Q64.01888913085938,34.935300234375,64.01888913085938,34.236080234375Q64.01888913085938,33.384520234375,63.845059130859376,32.823970234375Q63.67122913085937,32.263430234375,63.37044913085938,32.009520234375Q63.069669130859374,31.755620234375,62.67122913085937,31.755620234375Q62.319669130859374,31.755620234375,62.06771913085937,31.919680234375Q61.81576913085937,32.083740234375,61.64974913085938,32.386470234375Q61.48372913085937,32.689210234375,61.407559130859376,33.118900234375Q61.33138913085938,33.548580234375,61.33138913085938,34.075930234375ZM65.54622913085937,31.474360234375L69.77280913085937,31.474360234375L69.77280913085937,32.833740234375L69.39000913085937,32.833740234375Q69.30400913085937,32.497800234375,69.22010913085937,32.302490234375Q69.13610913085938,32.107180234375,69.04230913085938,32.005620234375Q68.94860913085938,31.904050234375,68.84110913085938,31.861080234375Q68.73370913085938,31.818120234375,68.51890913085937,31.818120234375L68.02280913085937,31.818120234375L68.02280913085937,35.818120234375Q68.02280913085937,36.048580234375,68.04820913085938,36.185300234375Q68.07360913085938,36.322020234375,68.12630913085937,36.402100234375Q68.17900913085937,36.482180234375,68.26890913085937,36.527100234375Q68.35870913085938,36.572020234375,68.55010913085937,36.614990234375L68.55010913085937,36.806400234375L66.76498913085938,36.806400234375L66.76498913085938,36.614990234375Q66.88216913085938,36.587650234375,66.97201913085938,36.556400234375Q67.06185913085938,36.525150234375,67.11849913085938,36.480220234375Q67.17513913085938,36.435300234375,67.21224913085938,36.364990234375Q67.24935913085938,36.294680234375,67.27083913085937,36.173580234375Q67.29232913085937,36.052490234375,67.29232913085937,35.818120234375L67.29232913085937,31.818120234375L66.80013913085938,31.818120234375Q66.61654913085937,31.818120234375,66.49740913085938,31.853270234375Q66.37826913085938,31.888430234375,66.27669913085937,31.999760234375Q66.17513913085938,32.111080234375,66.09115913085938,32.316160234375Q66.00716913085938,32.521240234375,65.93294913085937,32.833740234375L65.54622913085937,32.833740234375L65.54622913085937,31.474360234375Z" fill="#FFFFFF" fill-opacity="1"/></g></g></svg>